<?xml version="1.0" standalone="no"?><!DOCTYPE svg PUBLIC "-//W3C//DTD SVG 1.1//EN" "http://www.w3.org/Graphics/SVG/1.1/DTD/svg11.dtd"><svg class="icon" width="48px" height="48.00px" viewBox="0 0 1024 1024" version="1.1" xmlns="http://www.w3.org/2000/svg"><path fill="#211d3e" d="M207 192v640h610V192z m570 600H247V232h530z"  /><path fill="#211d3e" d="M393.75 562h236.5l93.53 16.51L757 545.28v-66.56l-33.22-33.23L630.25 462h-236.5l-93.53-16.51L267 478.72v66.56l33.22 33.23zM717 495.28v33.44l-6.78 6.77L652 525.22v-26.44l58.22-10.27zM612 522H412v-20h200z m-305-26.72l6.78-6.77L372 498.78v26.44l-58.22 10.27-6.78-6.77zM497 262H277v170h220z m-40 130H317v-90h140zM747 262H527v170h220z m-40 130H567v-90h140zM277 762h220V592H277z m40-130h140v90H317zM527 762h220V592H527z m40-130h140v90H567z"  /></svg>